<?xml version="1.0" standalone="yes"?>
<svg xmlns="http://www.w3.org/2000/svg" width="720" height="720">
<path style="fill:#adadfd; stroke:none;" d="M443 38.6766C386.304 51.5573 399.068 137.403 459 124.581C513.827 112.852 498.524 26.0623 443 38.6766M437 194.457C393.683 200.262 354.881 241.848 326.864 272C258.853 345.194 196.353 426.095 160.058 520C141.47 568.093 141.98 631.367 182 668.914C214.686 699.581 270.139 694.978 307 674.651C320.418 667.252 339.584 644.288 356 646.36C370.424 648.18 381.086 664.478 393 671.557C413.214 683.569 440.723 684.467 463 678.342C499.474 668.313 531.518 635.463 531.992 596C532.11 586.212 537.581 566.056 525.951 561.043C511.569 554.842 497.949 573.88 490.242 583C466.162 611.494 431.458 640.834 403.081 600C397.575 592.078 393.088 583.151 390.02 574C369.829 513.768 393.837 434.377 407.221 375C412.458 351.764 413.878 326.049 423.268 304C433.023 281.093 450.752 262.597 461.037 240C470.503 219.204 464.534 190.767 437 194.457M348.539 335.283C354.078 334.763 351.148 351.044 350.737 354C347.94 374.117 344.954 394.995 340.426 415C334.937 439.254 329.291 464.273 326.258 489C319.676 542.659 332.319 586.907 278 619.538C268.881 625.016 256.822 631.416 246 631.912C209.115 633.603 207.219 574.434 210.72 549C214.718 519.958 230.975 495.66 245.92 471C264.646 440.101 282.688 408.672 304.794 380C313.132 369.186 333.878 336.66 348.539 335.283z"/>
</svg>
